<svg xmlns="http://www.w3.org/2000/svg" viewBox="0 0 32 40" x="0px" y="0px"><title>BUILD</title><g data-name="Layer 11"><path d="M18.33,16.37a1.22,1.22,0,1,0-1.22-1.22A1.22,1.22,0,0,0,18.33,16.37Zm0-1.7a.47.47,0,1,1-.47.47A.47.47,0,0,1,18.33,14.67Z"/><path d="M18.33,19.22A1.22,1.22,0,1,0,17.1,18,1.22,1.22,0,0,0,18.33,19.22Zm0-1.7a.47.47,0,1,1-.47.47A.47.47,0,0,1,18.33,17.53Z"/><path d="M18.33,22.35a1.22,1.22,0,1,0-1.22-1.22A1.22,1.22,0,0,0,18.33,22.35Zm0-1.7a.47.47,0,1,1-.47.47A.47.47,0,0,1,18.33,20.65Z"/><path d="M18.33,25.24A1.22,1.22,0,1,0,17.1,24,1.22,1.22,0,0,0,18.33,25.24Zm0-1.7a.47.47,0,1,1-.47.47A.47.47,0,0,1,18.33,23.54Z"/><path d="M18.33,28.18A1.22,1.22,0,1,0,17.1,27,1.22,1.22,0,0,0,18.33,28.18Zm0-1.7a.47.47,0,1,1-.47.47A.47.47,0,0,1,18.33,26.49Z"/><path d="M31.25,30.55h-.72s0,0,0,0V29.16h0V27.4h0V26h0V24.53h0V23.1h0V21.67h0V19.84a.9.9,0,0,0,0-.21.38.38,0,0,0-.19-.22l-1.42-.69V12.9h.26a.38.38,0,0,0,.38-.37V10.76a.38.38,0,0,0-.37-.37H24.91a.38.38,0,0,0-.37.38v1.76a.38.38,0,0,0,.38.38h.31V17l-1.14-.55a.37.37,0,0,0-.2,0V7a.46.46,0,0,0,0-.07,1.09,1.09,0,0,0-.09-.32l0,0a.37.37,0,0,0,0-.3,6.76,6.76,0,0,0-6.51-4.94H14.24a6.72,6.72,0,0,0-4.6,1.82l0,0s0,0,0,0l-.14.13A6.66,6.66,0,0,0,7.73,6.26a.37.37,0,0,0,.05.3l0,0a1.14,1.14,0,0,0-.1.39v4.24h0L6,12.32V9.41A.38.38,0,0,0,5.61,9H4.94V6.95a.38.38,0,0,0-.37-.37H4v-4a.38.38,0,0,0-.75,0v4H2.64a.38.38,0,0,0-.37.38V9H1.59a.38.38,0,0,0-.37.38V18.1a.33.33,0,0,0,0,.08V30.47a.36.36,0,0,0,0,.08H.75a.38.38,0,0,0,0,.75h30.5a.37.37,0,0,0,0-.75Zm-6-19.41h3.48v1H25.29ZM13,5.93,10.43,3.44a6,6,0,0,1,1.51-.91L15.06,6H13S13,5.95,13,5.93Zm8-2.55L18.34,6H16.9l3-3.31A6,6,0,0,1,21,3.39Zm3.25,26.15h5.52v.61H24.27ZM12.49,26.2H8.41V25h4.09a.38.38,0,0,0,0-.75H8.41V23.14h4.09a.38.38,0,0,0,0-.75H8.41V21.24h4.09a.38.38,0,1,0,0-.75H8.41V19.33h4.09a.38.38,0,1,0,0-.75H8.41V17.42h4.09a.38.38,0,1,0,0-.75H8.41V15.52h4.09a.38.38,0,1,0,0-.75H8.4V13.61h4.09a.38.38,0,1,0,0-.75H8.4V11.71h4.09a.38.38,0,1,0,0-.75H8.4V9.8h4.09a.38.38,0,0,0,0-.75H8.4V7.13H23.13v5.75l-.09,0H21.91v-2.1a.38.38,0,0,0-.37-.37H18a.38.38,0,0,0-.37.38v2.1H16.22a.38.38,0,0,0-.37.38V28.78H8.41V27h4.09a.38.38,0,0,0,0-.75Zm8.66-13.34H18.39V11.14h2.76Zm1.5.75V28.45H16.59V13.61Zm.47,15.92v.64H8.41v-.64ZM26,13.11h2.16v5.26l-2.16-1ZM29.78,20v1.28H28A.38.38,0,0,0,28,22h1.77v.68H28a.38.38,0,0,0,0,.75h1.77v.68H28a.38.38,0,0,0,0,.75h1.77v.68H28a.38.38,0,0,0,0,.75h1.77V27H28a.38.38,0,0,0,0,.75h1.77v1H24.27V17.32ZM22.93,6H19.42l2.16-2.1A5.93,5.93,0,0,1,22.93,6ZM19.16,2.38,16.3,5.53V2.08h1A6,6,0,0,1,19.16,2.38Zm-3.61-.3V5.42L12.72,2.28a6,6,0,0,1,1.53-.2ZM9.88,4,12,6H8.61A5.91,5.91,0,0,1,9.88,4ZM7.5,28.78H2V28.5H3a.38.38,0,1,0,0-.75H2v-.42H3a.38.38,0,0,0,0-.75H2v-.42H3a.38.38,0,0,0,0-.75H2V25H3a.38.38,0,1,0,0-.75H2v-.42H3a.38.38,0,0,0,0-.75H2v-.42H3a.38.38,0,0,0,0-.75H2V21.5H3a.38.38,0,1,0,0-.75H2V15.9l3.78-2.52a.37.37,0,0,0,.12-.08L7.5,12.22Zm0,.75v.56H2v-.56ZM2.64,9.78A.38.38,0,0,0,3,9.41V7.32H4.19V9.41a.38.38,0,0,0,.38.38h.68v3L2,15V9.78Z"/><path d="M4.49,16.67H2.58a.38.38,0,0,0-.37.38V19a.38.38,0,0,0,.38.38H4.49A.38.38,0,0,0,4.86,19V17A.38.38,0,0,0,4.49,16.67Zm-.37,1.91H3V17.42H4.11Z"/></g><text x="0" y="47" fill="#000000" font-size="5px" font-weight="bold" font-family="'Helvetica Neue', Helvetica, Arial-Unicode, Arial, Sans-serif">Created by iconix user</text><text x="0" y="52" fill="#000000" font-size="5px" font-weight="bold" font-family="'Helvetica Neue', Helvetica, Arial-Unicode, Arial, Sans-serif">from the Noun Project</text></svg>